<svg xmlns="http://www.w3.org/2000/svg" xmlns:xlink="http://www.w3.org/1999/xlink" width="64" zoomAndPan="magnify" viewBox="0 0 48 48" height="64" preserveAspectRatio="xMidYMid meet" version="1.0"><defs><clipPath id="638e70654e"><path d="M 12 13 L 33 13 L 33 33 L 12 33 Z M 12 13 " clip-rule="nonzero"/></clipPath><clipPath id="439489b298"><path d="M 15.488281 10.628906 L 34.980469 15.726562 L 29.886719 35.214844 L 10.394531 30.121094 Z M 15.488281 10.628906 " clip-rule="nonzero"/></clipPath><clipPath id="416ccee3e4"><path d="M 26.117188 14.015625 L 26.121094 14.015625 C 26.492188 15.027344 27.539062 15.625 28.597656 15.425781 C 29.015625 15.351562 29.441406 15.480469 29.746094 15.78125 C 30.046875 16.078125 30.183594 16.503906 30.109375 16.925781 C 29.925781 17.988281 30.53125 19.027344 31.550781 19.382812 L 31.550781 19.386719 C 31.953125 19.527344 32.257812 19.855469 32.371094 20.261719 C 32.484375 20.671875 32.386719 21.109375 32.117188 21.4375 C 31.425781 22.265625 31.433594 23.46875 32.132812 24.289062 L 32.136719 24.289062 C 32.414062 24.613281 32.511719 25.050781 32.40625 25.464844 C 32.296875 25.875 31.996094 26.207031 31.597656 26.355469 L 31.59375 26.355469 C 30.582031 26.730469 29.988281 27.773438 30.183594 28.832031 C 30.261719 29.25 30.128906 29.679688 29.828125 29.980469 C 29.53125 30.285156 29.105469 30.417969 28.6875 30.347656 L 28.683594 30.347656 C 27.621094 30.160156 26.582031 30.769531 26.226562 31.785156 L 26.226562 31.789062 C 26.082031 32.1875 25.753906 32.496094 25.347656 32.605469 C 24.9375 32.71875 24.5 32.625 24.171875 32.351562 C 23.34375 31.664062 22.140625 31.671875 21.324219 32.371094 L 21.320312 32.375 C 20.996094 32.648438 20.558594 32.75 20.144531 32.640625 C 19.734375 32.535156 19.402344 32.234375 19.253906 31.832031 L 19.253906 31.828125 C 18.878906 30.820312 17.835938 30.222656 16.777344 30.421875 C 16.359375 30.496094 15.929688 30.367188 15.628906 30.066406 C 15.328125 29.769531 15.191406 29.339844 15.261719 28.921875 C 15.449219 27.859375 14.839844 26.820312 13.824219 26.460938 L 13.820312 26.460938 C 13.421875 26.320312 13.117188 25.992188 13.003906 25.582031 C 12.890625 25.175781 12.984375 24.734375 13.257812 24.410156 C 13.945312 23.582031 13.9375 22.378906 13.238281 21.558594 C 12.960938 21.234375 12.859375 20.796875 12.96875 20.382812 C 13.074219 19.972656 13.378906 19.636719 13.777344 19.492188 L 13.78125 19.492188 C 14.789062 19.117188 15.386719 18.070312 15.191406 17.011719 C 15.113281 16.597656 15.246094 16.167969 15.542969 15.867188 C 15.839844 15.5625 16.269531 15.425781 16.6875 15.5 C 17.75 15.683594 18.789062 15.078125 19.148438 14.0625 L 19.148438 14.058594 C 19.289062 13.660156 19.617188 13.351562 20.027344 13.238281 C 20.433594 13.128906 20.875 13.222656 21.199219 13.492188 C 22.027344 14.183594 23.230469 14.175781 24.050781 13.476562 L 24.050781 13.472656 C 24.375 13.199219 24.816406 13.097656 25.226562 13.203125 C 25.636719 13.3125 25.972656 13.613281 26.117188 14.015625 Z M 26.117188 14.015625 " clip-rule="nonzero"/></clipPath><clipPath id="2df3566175"><path d="M 0.714844 0 L 20.699219 0 L 20.699219 19.914062 L 0.714844 19.914062 Z M 0.714844 0 " clip-rule="nonzero"/></clipPath><clipPath id="e93ce429f4"><path d="M 3.488281 -2.371094 L 22.980469 2.726562 L 17.886719 22.214844 L -1.605469 17.121094 Z M 3.488281 -2.371094 " clip-rule="nonzero"/></clipPath><clipPath id="d5b4862150"><path d="M 14.117188 1.015625 L 14.121094 1.015625 C 14.492188 2.027344 15.539062 2.625 16.597656 2.425781 C 17.015625 2.351562 17.441406 2.480469 17.746094 2.78125 C 18.046875 3.078125 18.183594 3.503906 18.109375 3.925781 C 17.925781 4.988281 18.53125 6.027344 19.550781 6.382812 L 19.550781 6.386719 C 19.953125 6.527344 20.257812 6.855469 20.371094 7.261719 C 20.484375 7.671875 20.386719 8.109375 20.117188 8.4375 C 19.425781 9.265625 19.433594 10.46875 20.132812 11.289062 L 20.136719 11.289062 C 20.414062 11.613281 20.511719 12.050781 20.40625 12.464844 C 20.296875 12.875 19.996094 13.207031 19.597656 13.355469 L 19.59375 13.355469 C 18.582031 13.730469 17.988281 14.773438 18.183594 15.832031 C 18.261719 16.25 18.128906 16.679688 17.828125 16.980469 C 17.53125 17.285156 17.105469 17.417969 16.6875 17.347656 L 16.683594 17.347656 C 15.621094 17.160156 14.582031 17.769531 14.226562 18.785156 L 14.226562 18.789062 C 14.082031 19.1875 13.753906 19.496094 13.347656 19.605469 C 12.9375 19.71875 12.5 19.625 12.171875 19.351562 C 11.34375 18.664062 10.140625 18.671875 9.324219 19.371094 L 9.320312 19.375 C 8.996094 19.648438 8.558594 19.75 8.144531 19.640625 C 7.734375 19.535156 7.402344 19.234375 7.253906 18.832031 L 7.253906 18.828125 C 6.878906 17.820312 5.835938 17.222656 4.777344 17.421875 C 4.359375 17.496094 3.929688 17.367188 3.628906 17.066406 C 3.328125 16.769531 3.191406 16.339844 3.261719 15.921875 C 3.449219 14.859375 2.839844 13.820312 1.824219 13.460938 L 1.820312 13.460938 C 1.421875 13.320312 1.117188 12.992188 1.003906 12.582031 C 0.890625 12.175781 0.984375 11.734375 1.257812 11.410156 C 1.945312 10.582031 1.9375 9.378906 1.238281 8.558594 C 0.960938 8.234375 0.859375 7.796875 0.96875 7.382812 C 1.074219 6.972656 1.378906 6.636719 1.777344 6.492188 L 1.78125 6.492188 C 2.789062 6.117188 3.386719 5.070312 3.191406 4.011719 C 3.113281 3.597656 3.246094 3.167969 3.542969 2.867188 C 3.839844 2.5625 4.269531 2.425781 4.6875 2.5 C 5.75 2.683594 6.789062 2.078125 7.148438 1.0625 L 7.148438 1.058594 C 7.289062 0.660156 7.617188 0.351562 8.027344 0.238281 C 8.433594 0.128906 8.875 0.222656 9.199219 0.492188 C 10.027344 1.183594 11.230469 1.175781 12.050781 0.476562 L 12.050781 0.472656 C 12.375 0.199219 12.816406 0.0976562 13.226562 0.203125 C 13.636719 0.3125 13.972656 0.613281 14.117188 1.015625 Z M 14.117188 1.015625 " clip-rule="nonzero"/></clipPath><clipPath id="3b8dbf7bb3"><rect x="0" width="21" y="0" height="20"/></clipPath><clipPath id="8ae7fe4fc5"><path d="M 16 17 L 29 17 L 29 30 L 16 30 Z M 16 17 " clip-rule="nonzero"/></clipPath><clipPath id="9e598de813"><path d="M 16.265625 28.828125 L 17.316406 17.121094 L 29.023438 18.175781 L 27.972656 29.882812 Z M 16.265625 28.828125 " clip-rule="nonzero"/></clipPath><clipPath id="eee897af8a"><path d="M 16.265625 28.828125 L 17.316406 17.121094 L 29.023438 18.175781 L 27.972656 29.882812 Z M 16.265625 28.828125 " clip-rule="nonzero"/></clipPath><clipPath id="0e99d924fd"><path d="M 17 21 L 21 21 L 21 26 L 17 26 Z M 17 21 " clip-rule="nonzero"/></clipPath><clipPath id="3da4f56d05"><path d="M 16.265625 28.828125 L 17.316406 17.121094 L 29.023438 18.175781 L 27.972656 29.882812 Z M 16.265625 28.828125 " clip-rule="nonzero"/></clipPath><clipPath id="e25db40b46"><path d="M 16.265625 28.828125 L 17.316406 17.121094 L 29.023438 18.175781 L 27.972656 29.882812 Z M 16.265625 28.828125 " clip-rule="nonzero"/></clipPath><clipPath id="4df766eff2"><path d="M 17 17 L 26 17 L 26 26 L 17 26 Z M 17 17 " clip-rule="nonzero"/></clipPath><clipPath id="dad5ec8275"><path d="M 16.265625 28.828125 L 17.316406 17.121094 L 29.023438 18.175781 L 27.972656 29.882812 Z M 16.265625 28.828125 " clip-rule="nonzero"/></clipPath><clipPath id="8f308b120b"><path d="M 16.265625 28.828125 L 17.316406 17.121094 L 29.023438 18.175781 L 27.972656 29.882812 Z M 16.265625 28.828125 " clip-rule="nonzero"/></clipPath><clipPath id="d3df3686d1"><path d="M 17 17 L 25 17 L 25 26 L 17 26 Z M 17 17 " clip-rule="nonzero"/></clipPath><clipPath id="17ce173b9c"><path d="M 16.265625 28.828125 L 17.316406 17.121094 L 29.023438 18.175781 L 27.972656 29.882812 Z M 16.265625 28.828125 " clip-rule="nonzero"/></clipPath><clipPath id="67d2065fe9"><path d="M 16.265625 28.828125 L 17.316406 17.121094 L 29.023438 18.175781 L 27.972656 29.882812 Z M 16.265625 28.828125 " clip-rule="nonzero"/></clipPath><clipPath id="0c26c77537"><path d="M 20 21 L 29 21 L 29 30 L 20 30 Z M 20 21 " clip-rule="nonzero"/></clipPath><clipPath id="6e0fefc219"><path d="M 16.265625 28.828125 L 17.316406 17.121094 L 29.023438 18.175781 L 27.972656 29.882812 Z M 16.265625 28.828125 " clip-rule="nonzero"/></clipPath><clipPath id="0273dc5788"><path d="M 16.265625 28.828125 L 17.316406 17.121094 L 29.023438 18.175781 L 27.972656 29.882812 Z M 16.265625 28.828125 " clip-rule="nonzero"/></clipPath><clipPath id="a476226fd9"><path d="M 17 17 L 29 17 L 29 30 L 17 30 Z M 17 17 " clip-rule="nonzero"/></clipPath><clipPath id="0edb072e98"><path d="M 16.265625 28.828125 L 17.316406 17.121094 L 29.023438 18.175781 L 27.972656 29.882812 Z M 16.265625 28.828125 " clip-rule="nonzero"/></clipPath><clipPath id="631ad2c131"><path d="M 16.265625 28.828125 L 17.316406 17.121094 L 29.023438 18.175781 L 27.972656 29.882812 Z M 16.265625 28.828125 " clip-rule="nonzero"/></clipPath><clipPath id="58eb0891a3"><path d="M 17 17 L 25 17 L 25 25 L 17 25 Z M 17 17 " clip-rule="nonzero"/></clipPath><clipPath id="c4ccf83252"><path d="M 16.265625 28.828125 L 17.316406 17.121094 L 29.023438 18.175781 L 27.972656 29.882812 Z M 16.265625 28.828125 " clip-rule="nonzero"/></clipPath><clipPath id="3a6ee4a54d"><path d="M 16.265625 28.828125 L 17.316406 17.121094 L 29.023438 18.175781 L 27.972656 29.882812 Z M 16.265625 28.828125 " clip-rule="nonzero"/></clipPath><clipPath id="df3e27dfba"><path d="M 20 22 L 28 22 L 28 30 L 20 30 Z M 20 22 " clip-rule="nonzero"/></clipPath><clipPath id="96167ee30a"><path d="M 16.265625 28.828125 L 17.316406 17.121094 L 29.023438 18.175781 L 27.972656 29.882812 Z M 16.265625 28.828125 " clip-rule="nonzero"/></clipPath><clipPath id="ef4acd5b82"><path d="M 16.265625 28.828125 L 17.316406 17.121094 L 29.023438 18.175781 L 27.972656 29.882812 Z M 16.265625 28.828125 " clip-rule="nonzero"/></clipPath><clipPath id="8002e726c2"><path d="M 21.824219 24.757812 L 29.167969 24.757812 L 29.167969 30.636719 L 21.824219 30.636719 Z M 21.824219 24.757812 " clip-rule="nonzero"/></clipPath></defs><g clip-path="url(#638e70654e)"><g clip-path="url(#439489b298)"><g clip-path="url(#416ccee3e4)"><g transform="matrix(1, 0, 0, 1, 12, 13)"><g clip-path="url(#3b8dbf7bb3)"><g clip-path="url(#2df3566175)"><g clip-path="url(#e93ce429f4)"><g clip-path="url(#d5b4862150)"><path fill="#ffffff" d="M 2.8125 -3.523438 L 24.136719 2.046875 L 18.5625 23.371094 L -2.761719 17.800781 Z M 2.8125 -3.523438 " fill-opacity="1" fill-rule="nonzero"/></g></g></g></g></g></g></g></g><g clip-path="url(#8ae7fe4fc5)"><g clip-path="url(#9e598de813)"><g clip-path="url(#eee897af8a)"><path stroke-linecap="butt" transform="matrix(0.00430734, -0.0479113, 0.0479113, 0.00430734, 8.936694, 46.894782)" fill="none" stroke-linejoin="miter" d="M 514.478762 147.970538 C 490.392209 172.067799 455.009347 207.453525 408.168422 254.142255 C 395.150087 267.134621 388.613787 282.397818 388.654942 300.086329 C 388.739615 311.003861 391.354192 321.0417 396.498672 330.199848 C 405.613515 346.338833 421.554712 358.602875 440.25469 361.650493 C 454.478231 363.877591 467.595781 361.964511 479.680947 355.823107 C 486.933501 352.15444 492.989229 346.962752 498.972247 340.962291 C 520.726111 319.031486 556.999519 282.668859 607.873345 231.867137 C 611.759035 227.930443 614.945913 224.382698 617.279497 221.31932 C 636.897781 195.585494 635.138863 160.603796 612.121194 137.643148 C 590.52117 115.941076 557.227829 112.900944 532.353313 130.954225 C 530.050604 132.547271 524.11938 138.216951 514.478762 147.970538 " stroke="#868989" stroke-width="2" stroke-opacity="1" stroke-miterlimit="4"/></g></g></g><g clip-path="url(#0e99d924fd)"><g clip-path="url(#3da4f56d05)"><g clip-path="url(#e25db40b46)"><path stroke-linecap="butt" transform="matrix(0.00430734, -0.0479113, 0.0479113, 0.00430734, 8.936694, 46.894782)" fill="none" stroke-linejoin="miter" d="M 527.917135 148.719136 L 483.217165 193.829364 " stroke="#5c777f" stroke-width="2" stroke-opacity="1" stroke-miterlimit="4"/></g></g></g><g clip-path="url(#4df766eff2)"><g clip-path="url(#dad5ec8275)"><g clip-path="url(#8f308b120b)"><path stroke-linecap="butt" transform="matrix(0.00430734, -0.0479113, 0.0479113, 0.00430734, 8.936694, 46.894782)" fill="none" stroke-linejoin="miter" d="M 483.217165 193.829364 L 476.181848 200.821269 C 475.880152 201.092985 475.923778 201.578249 476.195494 201.879944 L 549.566872 275.265511 C 549.662291 275.419994 549.904923 275.398181 550.052135 275.221884 C 559.324722 265.909039 576.839408 248.517425 602.42717 222.980706 C 608.645548 216.877555 613.121878 210.441833 616.032456 203.820752 C 631.971111 167.084935 603.57439 126.915667 563.739162 130.007769 C 549.321201 131.059388 537.661339 138.303989 527.917135 148.719136 " stroke="#768283" stroke-width="2" stroke-opacity="1" stroke-miterlimit="4"/></g></g></g><g clip-path="url(#d3df3686d1)"><g clip-path="url(#17ce173b9c)"><g clip-path="url(#67d2065fe9)"><path stroke-linecap="butt" transform="matrix(0.00430734, -0.0479113, 0.0479113, 0.00430734, 8.936694, 46.894782)" fill="none" stroke-linejoin="miter" d="M 483.217165 193.829364 C 484.121357 193.911137 484.084106 194.403671 483.112683 195.387845 C 481.53787 196.91545 479.882179 198.450327 478.152881 200.073352 C 477.851186 200.345068 477.725786 200.763996 477.754871 201.087505 C 477.710349 201.499162 477.908459 201.889006 478.172903 202.109825 C 489.81396 213.700558 505.039118 228.882556 523.862919 247.817573 C 526.374698 250.363809 530.604921 254.793826 536.458169 260.95314 C 543.677268 268.701811 547.371331 272.609313 547.547627 272.756525 C 548.958 273.934224 550.259307 273.898764 551.370671 272.657417 C 552.173068 271.606908 553.14449 270.622735 554.270396 269.543142 C 580.888643 242.772347 595.400915 228.259647 597.719061 225.931435 C 604.76892 219.101285 609.287981 214.047747 611.268972 210.689945 C 614.943801 204.407811 617.390928 198.072988 618.522207 191.611871 C 621.516241 175.036514 616.173545 158.23228 604.334378 146.251703 C 597.166176 139.069173 588.922071 134.429298 579.682939 132.324806 C 567.121464 129.54063 555.349743 131.006592 544.536799 136.789028 C 539.946819 139.239952 535.156938 143.094873 530.167156 148.353792 C 529.939066 148.53736 529.710977 148.720927 529.394739 148.830889 C 528.84314 149.043541 528.269729 149.013561 527.917135 148.719136 " stroke="#c4e7f0" stroke-width="2" stroke-opacity="1" stroke-miterlimit="4"/></g></g></g><g clip-path="url(#0c26c77537)"><g clip-path="url(#6e0fefc219)"><g clip-path="url(#0273dc5788)"><path stroke-linecap="butt" transform="matrix(0.00430734, -0.0479113, 0.0479113, 0.00430734, 8.936694, 46.894782)" fill="none" stroke-linejoin="miter" d="M 542.619703 282.331022 L 468.800313 208.496548 C 468.712165 208.422941 468.543139 208.356606 468.381385 208.371149 C 468.300507 208.37842 468.138753 208.392962 468.065147 208.48111 L 414.578749 261.963636 C 393.928976 282.572216 393.784987 316.338965 414.129122 336.767919 L 414.305418 336.915131 C 434.730431 357.336814 468.548972 357.150023 489.198745 336.541443 L 542.604265 283.066188 C 542.677872 282.97804 542.744207 282.809015 542.736936 282.728137 C 542.722393 282.566383 542.707851 282.404628 542.619703 282.331022 " stroke="#868989" stroke-width="2" stroke-opacity="1" stroke-miterlimit="4"/></g></g></g><g clip-path="url(#a476226fd9)"><g clip-path="url(#0edb072e98)"><g clip-path="url(#631ad2c131)"><path fill="#8dc671" d="M 17.503906 21.953125 C 16.746094 20.683594 17.035156 19.101562 18.167969 18.160156 C 19.367188 17.15625 21.050781 17.222656 22.199219 18.273438 C 22.335938 18.398438 22.492188 18.566406 22.664062 18.769531 C 24.878906 21.425781 26.464844 23.320312 27.421875 24.457031 C 27.683594 24.769531 27.90625 25.082031 28.050781 25.445312 C 28.292969 26.050781 28.328125 26.6875 28.160156 27.359375 C 27.933594 28.242188 27.277344 28.953125 26.464844 29.320312 C 26.003906 29.527344 25.511719 29.609375 24.988281 29.566406 C 24.140625 29.492188 23.4375 29.113281 22.871094 28.433594 C 20.835938 25.988281 19.292969 24.140625 18.242188 22.882812 C 17.816406 22.378906 17.570312 22.070312 17.503906 21.953125 Z M 18.335938 22.242188 L 20.304688 24.578125 L 20.609375 24.945312 C 20.621094 24.960938 20.644531 24.960938 20.660156 24.949219 L 24.492188 21.75 C 24.5 21.746094 24.5 21.734375 24.492188 21.726562 C 24.085938 21.242188 23.328125 20.328125 22.214844 18.992188 C 21.949219 18.667969 21.660156 18.425781 21.355469 18.257812 C 19.664062 17.335938 17.617188 18.523438 17.59375 20.445312 C 17.582031 21.140625 17.878906 21.730469 18.335938 22.242188 Z M 24.800781 22.113281 L 20.945312 25.332031 C 20.941406 25.335938 20.9375 25.34375 20.9375 25.351562 C 20.9375 25.355469 20.9375 25.363281 20.941406 25.367188 L 23.273438 28.160156 C 24.171875 29.238281 25.789062 29.390625 26.855469 28.503906 L 26.863281 28.496094 C 27.929688 27.605469 28.066406 25.984375 27.167969 24.90625 L 24.835938 22.117188 C 24.832031 22.113281 24.824219 22.109375 24.820312 22.109375 C 24.8125 22.109375 24.804688 22.109375 24.800781 22.113281 Z M 24.800781 22.113281 " fill-opacity="1" fill-rule="nonzero"/></g></g></g><g clip-path="url(#58eb0891a3)"><g clip-path="url(#c4ccf83252)"><g clip-path="url(#3a6ee4a54d)"><path fill="#8dc671" d="M 20.304688 24.578125 C 20.3125 24.535156 20.335938 24.539062 20.378906 24.589844 C 20.445312 24.671875 20.511719 24.757812 20.582031 24.847656 C 20.59375 24.863281 20.613281 24.871094 20.628906 24.871094 C 20.648438 24.875 20.667969 24.867188 20.679688 24.855469 C 21.285156 24.347656 22.078125 23.683594 23.066406 22.863281 C 23.199219 22.753906 23.429688 22.570312 23.75 22.316406 C 24.152344 22.003906 24.355469 21.84375 24.363281 21.835938 C 24.425781 21.773438 24.429688 21.710938 24.375 21.652344 C 24.328125 21.609375 24.285156 21.558594 24.238281 21.5 C 23.070312 20.109375 22.4375 19.351562 22.335938 19.230469 C 22.039062 18.863281 21.816406 18.625 21.664062 18.515625 C 21.378906 18.3125 21.085938 18.167969 20.78125 18.085938 C 20 17.871094 19.171875 18.054688 18.546875 18.570312 C 18.171875 18.882812 17.914062 19.257812 17.773438 19.691406 C 17.585938 20.28125 17.605469 20.851562 17.835938 21.394531 C 17.933594 21.625 18.097656 21.871094 18.328125 22.132812 C 18.335938 22.144531 18.34375 22.15625 18.347656 22.171875 C 18.355469 22.199219 18.351562 22.226562 18.335938 22.242188 C 17.878906 21.730469 17.582031 21.140625 17.59375 20.445312 C 17.617188 18.523438 19.664062 17.335938 21.355469 18.257812 C 21.660156 18.425781 21.949219 18.667969 22.214844 18.992188 C 23.328125 20.328125 24.085938 21.242188 24.492188 21.726562 C 24.5 21.734375 24.5 21.746094 24.492188 21.75 L 20.660156 24.949219 C 20.644531 24.960938 20.621094 24.960938 20.609375 24.945312 Z M 20.304688 24.578125 " fill-opacity="1" fill-rule="nonzero"/><path fill="#8dc671" d="M 20.304688 24.578125 L 18.335938 22.242188 C 18.351562 22.226562 18.355469 22.199219 18.347656 22.171875 C 18.34375 22.15625 18.335938 22.144531 18.328125 22.132812 C 18.097656 21.871094 17.933594 21.625 17.835938 21.394531 C 17.605469 20.851562 17.585938 20.28125 17.773438 19.691406 C 17.914062 19.257812 18.171875 18.882812 18.546875 18.570312 C 19.171875 18.054688 20 17.871094 20.78125 18.085938 C 21.085938 18.167969 21.378906 18.3125 21.664062 18.515625 C 21.816406 18.625 22.039062 18.863281 22.335938 19.230469 C 22.4375 19.351562 23.070312 20.109375 24.238281 21.5 C 24.285156 21.558594 24.328125 21.609375 24.375 21.652344 C 24.429688 21.710938 24.425781 21.773438 24.363281 21.835938 C 24.355469 21.84375 24.152344 22.003906 23.75 22.316406 C 23.429688 22.570312 23.199219 22.753906 23.066406 22.863281 C 22.078125 23.683594 21.285156 24.347656 20.679688 24.855469 C 20.667969 24.867188 20.648438 24.875 20.628906 24.871094 C 20.613281 24.871094 20.59375 24.863281 20.582031 24.847656 C 20.511719 24.757812 20.445312 24.671875 20.378906 24.589844 C 20.335938 24.539062 20.3125 24.535156 20.304688 24.578125 Z M 20.304688 24.578125 " fill-opacity="1" fill-rule="nonzero"/></g></g></g><g clip-path="url(#df3e27dfba)"><g clip-path="url(#96167ee30a)"><g clip-path="url(#ef4acd5b82)"><path fill="#ffffff" d="M 24.800781 22.113281 C 24.804688 22.109375 24.8125 22.109375 24.820312 22.109375 C 24.824219 22.109375 24.832031 22.113281 24.835938 22.117188 L 27.167969 24.90625 C 28.066406 25.984375 27.929688 27.605469 26.863281 28.496094 L 26.855469 28.503906 C 25.789062 29.390625 24.171875 29.238281 23.273438 28.160156 L 20.941406 25.367188 C 20.9375 25.363281 20.9375 25.355469 20.9375 25.351562 C 20.9375 25.34375 20.941406 25.335938 20.945312 25.332031 Z M 24.800781 22.113281 " fill-opacity="1" fill-rule="nonzero"/></g></g></g><g clip-path="url(#8002e726c2)"><path fill="#ffffff" d="M 29.078125 27.140625 C 29.078125 29.140625 27.453125 30.765625 25.449219 30.765625 C 23.445312 30.765625 21.824219 29.140625 21.824219 27.140625 C 21.824219 25.136719 23.445312 23.511719 25.449219 23.511719 C 27.453125 23.511719 29.078125 25.136719 29.078125 27.140625 Z M 29.078125 27.140625 " fill-opacity="1" fill-rule="nonzero"/></g><path fill="#8dc671" d="M 26.492188 25.742188 C 26.492188 25.742188 25.457031 27.058594 24.996094 27.640625 C 24.714844 27.34375 24.402344 27.019531 24.402344 27.019531 C 24.214844 26.824219 23.90625 26.820312 23.707031 27.007812 C 23.511719 27.195312 23.507812 27.507812 23.695312 27.703125 L 24.679688 28.726562 C 24.777344 28.828125 24.917969 28.886719 25.058594 28.878906 C 25.199219 28.871094 25.332031 28.804688 25.417969 28.691406 L 27.265625 26.355469 C 27.433594 26.140625 27.394531 25.832031 27.183594 25.664062 C 26.96875 25.496094 26.660156 25.535156 26.492188 25.742188 Z M 26.492188 25.742188 " fill-opacity="1" fill-rule="nonzero"/></svg>