<svg xmlns="http://www.w3.org/2000/svg" xmlns:xlink="http://www.w3.org/1999/xlink" width="128" zoomAndPan="magnify" viewBox="0 0 48 48" height="128" preserveAspectRatio="xMidYMid meet" version="1.0"><defs><clipPath id="220152a4bc"><path d="M 13 13 L 48 13 L 48 48 L 13 48 Z M 13 13 " clip-rule="nonzero"/></clipPath><clipPath id="483d9c7fd0"><path d="M 22.746094 4.695312 L 91.214844 22.589844 L 73.316406 91.058594 L 4.851562 73.164062 Z M 22.746094 4.695312 " clip-rule="nonzero"/></clipPath><clipPath id="b814aa90d7"><path d="M 60.085938 16.578125 L 60.089844 16.589844 C 61.398438 20.140625 65.074219 22.234375 68.792969 21.542969 C 70.257812 21.273438 71.765625 21.734375 72.824219 22.785156 C 73.882812 23.832031 74.363281 25.332031 74.105469 26.800781 L 74.105469 26.808594 C 73.457031 30.535156 75.59375 34.1875 79.164062 35.445312 L 79.167969 35.445312 C 80.574219 35.941406 81.648438 37.09375 82.046875 38.53125 C 82.441406 39.96875 82.109375 41.507812 81.15625 42.65625 C 78.734375 45.5625 78.761719 49.789062 81.214844 52.664062 L 81.222656 52.675781 C 82.195312 53.8125 82.546875 55.351562 82.171875 56.796875 C 81.792969 58.246094 80.730469 59.414062 79.328125 59.929688 L 79.316406 59.9375 C 75.765625 61.242188 73.675781 64.917969 74.363281 68.636719 C 74.636719 70.101562 74.171875 71.609375 73.125 72.667969 C 72.074219 73.726562 70.574219 74.207031 69.105469 73.953125 L 69.097656 73.949219 C 65.371094 73.300781 61.71875 75.4375 60.464844 79.007812 L 60.460938 79.015625 C 59.964844 80.421875 58.8125 81.496094 57.375 81.890625 C 55.9375 82.285156 54.398438 81.953125 53.253906 81 C 50.347656 78.578125 46.117188 78.605469 43.242188 81.058594 L 43.230469 81.070312 C 42.09375 82.039062 40.554688 82.390625 39.109375 82.015625 C 37.664062 81.636719 36.492188 80.574219 35.976562 79.171875 L 35.972656 79.160156 C 34.664062 75.609375 30.988281 73.519531 27.269531 74.207031 C 25.804688 74.480469 24.300781 74.015625 23.238281 72.96875 C 22.179688 71.917969 21.699219 70.417969 21.957031 68.949219 L 21.957031 68.945312 C 22.605469 65.214844 20.46875 61.566406 16.898438 60.308594 L 16.894531 60.304688 C 15.488281 59.808594 14.414062 58.65625 14.015625 57.21875 C 13.621094 55.78125 13.953125 54.242188 14.910156 53.097656 C 17.328125 50.191406 17.304688 45.964844 14.847656 43.085938 L 14.839844 43.078125 C 13.867188 41.941406 13.515625 40.398438 13.894531 38.953125 C 14.269531 37.507812 15.332031 36.335938 16.734375 35.820312 L 16.746094 35.816406 C 20.296875 34.507812 22.386719 30.835938 21.699219 27.113281 C 21.425781 25.648438 21.890625 24.144531 22.9375 23.082031 C 23.988281 22.023438 25.488281 21.542969 26.957031 21.800781 L 26.964844 21.800781 C 30.691406 22.449219 34.34375 20.3125 35.601562 16.746094 L 35.601562 16.738281 C 36.097656 15.332031 37.25 14.257812 38.6875 13.863281 C 40.125 13.464844 41.664062 13.796875 42.808594 14.753906 C 45.714844 17.171875 49.945312 17.148438 52.820312 14.691406 L 52.832031 14.683594 C 53.96875 13.710938 55.507812 13.359375 56.953125 13.738281 C 58.402344 14.117188 59.570312 15.175781 60.085938 16.578125 Z M 60.085938 16.578125 " clip-rule="nonzero"/></clipPath><clipPath id="b41b0d22cf"><path d="M 0.441406 0.199219 L 35 0.199219 L 35 35 L 0.441406 35 Z M 0.441406 0.199219 " clip-rule="nonzero"/></clipPath><clipPath id="453e6e89a4"><path d="M 9.746094 -8.304688 L 78.214844 9.589844 L 60.316406 78.058594 L -8.148438 60.164062 Z M 9.746094 -8.304688 " clip-rule="nonzero"/></clipPath><clipPath id="78a778a0cf"><path d="M 47.085938 3.578125 L 47.089844 3.589844 C 48.398438 7.140625 52.074219 9.234375 55.792969 8.542969 C 57.257812 8.273438 58.765625 8.734375 59.824219 9.785156 C 60.882812 10.832031 61.363281 12.332031 61.105469 13.800781 L 61.105469 13.808594 C 60.457031 17.535156 62.59375 21.1875 66.164062 22.445312 L 66.167969 22.445312 C 67.574219 22.941406 68.648438 24.09375 69.046875 25.53125 C 69.441406 26.96875 69.109375 28.507812 68.15625 29.65625 C 65.734375 32.5625 65.761719 36.789062 68.214844 39.664062 L 68.222656 39.675781 C 69.195312 40.8125 69.546875 42.351562 69.171875 43.796875 C 68.792969 45.246094 67.730469 46.414062 66.328125 46.929688 L 66.316406 46.9375 C 62.765625 48.242188 60.675781 51.917969 61.363281 55.636719 C 61.636719 57.101562 61.171875 58.609375 60.125 59.667969 C 59.074219 60.726562 57.574219 61.207031 56.105469 60.953125 L 56.097656 60.949219 C 52.371094 60.300781 48.71875 62.4375 47.464844 66.007812 L 47.460938 66.015625 C 46.964844 67.421875 45.8125 68.496094 44.375 68.890625 C 42.9375 69.285156 41.398438 68.953125 40.253906 68 C 37.347656 65.578125 33.117188 65.605469 30.242188 68.058594 L 30.230469 68.070312 C 29.09375 69.039062 27.554688 69.390625 26.109375 69.015625 C 24.664062 68.636719 23.492188 67.574219 22.976562 66.171875 L 22.972656 66.160156 C 21.664062 62.609375 17.988281 60.519531 14.269531 61.207031 C 12.804688 61.480469 11.300781 61.015625 10.238281 59.96875 C 9.179688 58.917969 8.699219 57.417969 8.957031 55.949219 L 8.957031 55.945312 C 9.605469 52.214844 7.46875 48.566406 3.898438 47.308594 L 3.894531 47.304688 C 2.488281 46.808594 1.414062 45.65625 1.015625 44.21875 C 0.621094 42.78125 0.953125 41.242188 1.910156 40.097656 C 4.328125 37.191406 4.304688 32.964844 1.847656 30.085938 L 1.839844 30.078125 C 0.867188 28.941406 0.515625 27.398438 0.894531 25.953125 C 1.269531 24.507812 2.332031 23.335938 3.734375 22.820312 L 3.746094 22.816406 C 7.296875 21.507812 9.386719 17.835938 8.699219 14.113281 C 8.425781 12.648438 8.890625 11.144531 9.9375 10.082031 C 10.988281 9.023438 12.488281 8.542969 13.957031 8.800781 L 13.964844 8.800781 C 17.691406 9.449219 21.34375 7.3125 22.601562 3.746094 L 22.601562 3.738281 C 23.097656 2.332031 24.25 1.257812 25.6875 0.863281 C 27.125 0.464844 28.664062 0.796875 29.808594 1.753906 C 32.714844 4.171875 36.945312 4.148438 39.820312 1.691406 L 39.832031 1.683594 C 40.96875 0.710938 42.507812 0.359375 43.953125 0.738281 C 45.402344 1.117188 46.570312 2.175781 47.085938 3.578125 Z M 47.085938 3.578125 " clip-rule="nonzero"/></clipPath><clipPath id="1cb546b398"><rect x="0" width="35" y="0" height="35"/></clipPath><clipPath id="7f99144cb5"><path d="M 26 27 L 48 27 L 48 48 L 26 48 Z M 26 27 " clip-rule="nonzero"/></clipPath><clipPath id="a368ba12ff"><path d="M 25.492188 68.632812 L 29.1875 27.550781 L 70.269531 31.242188 L 66.578125 72.328125 Z M 25.492188 68.632812 " clip-rule="nonzero"/></clipPath><clipPath id="180e95c3aa"><path d="M 25.492188 68.632812 L 29.1875 27.550781 L 70.269531 31.242188 L 66.578125 72.328125 Z M 25.492188 68.632812 " clip-rule="nonzero"/></clipPath><clipPath id="65b0375ce6"><path d="M 30 43 L 42 43 L 42 48 L 30 48 Z M 30 43 " clip-rule="nonzero"/></clipPath><clipPath id="84e29a9984"><path d="M 25.492188 68.632812 L 29.1875 27.550781 L 70.269531 31.242188 L 66.578125 72.328125 Z M 25.492188 68.632812 " clip-rule="nonzero"/></clipPath><clipPath id="c5cbad4537"><path d="M 25.492188 68.632812 L 29.1875 27.550781 L 70.269531 31.242188 L 66.578125 72.328125 Z M 25.492188 68.632812 " clip-rule="nonzero"/></clipPath><clipPath id="9f84c69072"><path d="M 28 28 L 48 28 L 48 48 L 28 48 Z M 28 28 " clip-rule="nonzero"/></clipPath><clipPath id="44feaefba9"><path d="M 25.492188 68.632812 L 29.1875 27.550781 L 70.269531 31.242188 L 66.578125 72.328125 Z M 25.492188 68.632812 " clip-rule="nonzero"/></clipPath><clipPath id="fe9de77832"><path d="M 25.492188 68.632812 L 29.1875 27.550781 L 70.269531 31.242188 L 66.578125 72.328125 Z M 25.492188 68.632812 " clip-rule="nonzero"/></clipPath><clipPath id="d1f8d831a5"><path d="M 39 43 L 48 43 L 48 48 L 39 48 Z M 39 43 " clip-rule="nonzero"/></clipPath><clipPath id="190cb3267f"><path d="M 25.492188 68.632812 L 29.1875 27.550781 L 70.269531 31.242188 L 66.578125 72.328125 Z M 25.492188 68.632812 " clip-rule="nonzero"/></clipPath><clipPath id="c1c73a1591"><path d="M 25.492188 68.632812 L 29.1875 27.550781 L 70.269531 31.242188 L 66.578125 72.328125 Z M 25.492188 68.632812 " clip-rule="nonzero"/></clipPath><clipPath id="49ba175665"><path d="M 28 28 L 48 28 L 48 48 L 28 48 Z M 28 28 " clip-rule="nonzero"/></clipPath><clipPath id="ae8ad994d4"><path d="M 25.492188 68.632812 L 29.1875 27.550781 L 70.269531 31.242188 L 66.578125 72.328125 Z M 25.492188 68.632812 " clip-rule="nonzero"/></clipPath><clipPath id="6dd4536f26"><path d="M 25.492188 68.632812 L 29.1875 27.550781 L 70.269531 31.242188 L 66.578125 72.328125 Z M 25.492188 68.632812 " clip-rule="nonzero"/></clipPath><clipPath id="d386a4cffc"><path d="M 30 30 L 48 30 L 48 48 L 30 48 Z M 30 30 " clip-rule="nonzero"/></clipPath><clipPath id="e4cfc23613"><path d="M 25.492188 68.632812 L 29.1875 27.550781 L 70.269531 31.242188 L 66.578125 72.328125 Z M 25.492188 68.632812 " clip-rule="nonzero"/></clipPath><clipPath id="58cf85a3fa"><path d="M 25.492188 68.632812 L 29.1875 27.550781 L 70.269531 31.242188 L 66.578125 72.328125 Z M 25.492188 68.632812 " clip-rule="nonzero"/></clipPath><clipPath id="d4d1745c94"><path d="M 41 45 L 48 45 L 48 48 L 41 48 Z M 41 45 " clip-rule="nonzero"/></clipPath><clipPath id="f0900c7168"><path d="M 25.492188 68.632812 L 29.1875 27.550781 L 70.269531 31.242188 L 66.578125 72.328125 Z M 25.492188 68.632812 " clip-rule="nonzero"/></clipPath><clipPath id="78258caa61"><path d="M 25.492188 68.632812 L 29.1875 27.550781 L 70.269531 31.242188 L 66.578125 72.328125 Z M 25.492188 68.632812 " clip-rule="nonzero"/></clipPath></defs><g clip-path="url(#220152a4bc)"><g clip-path="url(#483d9c7fd0)"><g clip-path="url(#b814aa90d7)"><g transform="matrix(1, 0, 0, 1, 13, 13)"><g clip-path="url(#1cb546b398)"><g clip-path="url(#b41b0d22cf)"><g clip-path="url(#453e6e89a4)"><g clip-path="url(#78a778a0cf)"><path fill="#ffffff" d="M 7.367188 -12.363281 L 82.273438 7.210938 L 62.695312 82.117188 L -12.210938 62.539062 Z M 7.367188 -12.363281 " fill-opacity="1" fill-rule="nonzero"/></g></g></g></g></g></g></g></g><g clip-path="url(#7f99144cb5)"><g clip-path="url(#a368ba12ff)"><g clip-path="url(#180e95c3aa)"><path stroke-linecap="butt" transform="matrix(0.0151373, -0.168374, 0.168374, 0.0151373, -0.272195, 132.111457)" fill="none" stroke-linejoin="miter" d="M 514.452893 147.94783 C 490.429626 172.077826 454.985447 207.488919 408.139231 254.13301 C 395.130905 267.111208 388.643033 282.42638 388.679755 300.124552 C 388.706549 311.002866 391.324071 321.021872 396.507237 330.160624 C 405.639323 346.321906 421.572076 358.647013 440.260923 361.630006 C 454.454818 363.903513 467.598547 361.979464 479.69004 355.834844 C 486.921508 352.145539 493.001745 347.005343 498.978278 340.969676 C 520.71493 319.017238 557.00104 282.64886 607.834539 231.841529 C 611.771402 227.89162 614.935885 224.382348 617.28196 221.31785 C 636.942914 195.631251 635.116027 160.601342 612.146048 137.610579 C 590.526148 115.96003 557.260477 112.895541 532.318635 130.936964 C 530.097434 132.551845 524.135895 138.238166 514.452893 147.94783 " stroke="#868989" stroke-width="2" stroke-opacity="1" stroke-miterlimit="4"/></g></g></g><g clip-path="url(#65b0375ce6)"><g clip-path="url(#84e29a9984)"><g clip-path="url(#c5cbad4537)"><path stroke-linecap="butt" transform="matrix(0.0151373, -0.168374, 0.168374, 0.0151373, -0.272195, 132.111457)" fill="none" stroke-linejoin="miter" d="M 527.909805 148.733205 L 483.177997 193.864816 " stroke="#5c777f" stroke-width="2" stroke-opacity="1" stroke-miterlimit="4"/></g></g></g><g clip-path="url(#9f84c69072)"><g clip-path="url(#44feaefba9)"><g clip-path="url(#fe9de77832)"><path stroke-linecap="butt" transform="matrix(0.0151373, -0.168374, 0.168374, 0.0151373, -0.272195, 132.111457)" fill="none" stroke-linejoin="miter" d="M 483.177997 193.864816 L 476.194299 200.826223 C 475.917879 201.106272 475.9153 201.5937 476.197418 201.893135 L 549.563059 275.267211 C 549.690542 275.394949 549.897666 275.376328 550.025404 275.248845 C 559.327261 265.944644 576.808485 248.527551 602.467008 222.97455 C 608.621443 216.85329 613.150683 210.460542 616.031713 203.798376 C 631.94021 167.081212 603.600509 126.941326 563.762015 129.989311 C 549.313725 131.07945 537.643737 138.299768 527.909805 148.733205 " stroke="#768283" stroke-width="2" stroke-opacity="1" stroke-miterlimit="4"/><path stroke-linecap="butt" transform="matrix(0.0151373, -0.168374, 0.168374, 0.0151373, -0.272195, 132.111457)" fill="none" stroke-linejoin="miter" d="M 483.177997 193.864816 C 484.110964 193.920139 484.087441 194.43265 483.128372 195.377267 C 481.549489 196.911202 479.882688 198.499442 478.16986 200.091819 C 477.89137 200.348854 477.71735 200.735697 477.729509 201.129001 C 477.716585 201.50136 477.889841 201.880181 478.144808 202.135657 C 489.783525 213.663617 505.002116 228.88331 523.823593 247.792665 C 526.398339 250.368369 530.621834 254.767832 536.471066 260.993124 C 543.703737 268.671629 547.396355 272.585223 547.548921 272.733906 C 548.980711 273.950775 550.231734 273.931104 551.322934 272.649811 C 552.183741 271.644429 553.157548 270.605688 554.242286 269.510574 C 580.90616 242.753598 595.401314 228.24974 597.72568 225.975989 C 604.765751 219.125513 609.272771 214.033953 611.265618 210.653214 C 614.949553 204.406061 617.393065 198.038427 618.552196 191.577463 C 621.543495 175.045453 616.200669 158.19551 604.292503 146.250977 C 597.149309 139.051623 588.913641 134.409669 579.65454 132.318906 C 567.082468 129.505195 555.384727 130.997649 544.559249 136.773252 C 539.954445 139.228821 535.151588 143.094186 530.194636 148.342194 C 529.983118 148.570009 529.719367 148.73292 529.426394 148.828858 C 528.794421 149.024873 528.304923 148.999281 527.909805 148.733205 " stroke="#c4e7f0" stroke-width="2" stroke-opacity="1" stroke-miterlimit="4"/></g></g></g><g clip-path="url(#d1f8d831a5)"><g clip-path="url(#190cb3267f)"><g clip-path="url(#c1c73a1591)"><path stroke-linecap="butt" transform="matrix(0.0151373, -0.168374, 0.168374, 0.0151373, -0.272195, 132.111457)" fill="none" stroke-linejoin="miter" d="M 542.610651 282.318604 L 468.789381 208.521494 C 468.686981 208.414701 468.565705 208.356004 468.425553 208.345404 C 468.264456 208.359887 468.130511 208.418329 468.046732 208.51866 L 414.595639 261.950904 C 393.948118 282.599034 393.759593 316.371744 414.17784 336.784734 L 414.330406 336.933416 C 434.72564 357.348475 468.509203 357.141628 489.158794 336.516511 L 542.607817 283.061254 C 542.691597 282.960922 542.750293 282.839646 542.760893 282.699494 C 542.748479 282.561411 542.690037 282.427466 542.610651 282.318604 " stroke="#868989" stroke-width="2" stroke-opacity="1" stroke-miterlimit="4"/></g></g></g><g clip-path="url(#49ba175665)"><g clip-path="url(#ae8ad994d4)"><g clip-path="url(#6dd4536f26)"><path fill="#8dc671" d="M 29.832031 44.464844 C 27.171875 39.992188 28.191406 34.4375 32.164062 31.125 C 36.382812 27.605469 42.308594 27.828125 46.335938 31.527344 C 46.816406 31.96875 47.359375 32.554688 47.964844 33.277344 C 55.75 42.605469 61.324219 49.265625 64.691406 53.257812 C 65.617188 54.355469 66.390625 55.457031 66.902344 56.730469 C 67.753906 58.859375 67.878906 61.101562 67.28125 63.457031 C 66.496094 66.558594 64.179688 69.054688 61.320312 70.347656 C 59.703125 71.082031 57.976562 71.371094 56.144531 71.210938 C 53.164062 70.949219 50.683594 69.625 48.695312 67.238281 C 41.550781 58.644531 36.125 52.140625 32.425781 47.730469 C 30.9375 45.953125 30.070312 44.863281 29.832031 44.464844 Z M 32.761719 45.476562 L 39.683594 53.691406 L 40.75 54.972656 C 40.792969 55.023438 40.875 55.03125 40.929688 54.988281 L 54.394531 43.746094 C 54.417969 43.726562 54.417969 43.691406 54.398438 43.667969 C 52.972656 41.960938 50.304688 38.753906 46.390625 34.046875 C 45.453125 32.917969 44.445312 32.058594 43.367188 31.472656 C 37.425781 28.238281 30.238281 32.402344 30.148438 39.15625 C 30.113281 41.605469 31.152344 43.679688 32.761719 45.476562 Z M 55.476562 45.023438 L 41.933594 56.335938 C 41.914062 56.351562 41.902344 56.371094 41.898438 56.394531 C 41.898438 56.421875 41.90625 56.445312 41.921875 56.460938 L 50.109375 66.269531 C 53.273438 70.058594 58.957031 70.601562 62.703125 67.472656 L 62.730469 67.449219 C 66.476562 64.324219 66.953125 58.632812 63.792969 54.84375 L 55.601562 45.035156 C 55.585938 45.019531 55.566406 45.007812 55.542969 45.003906 C 55.519531 45.003906 55.496094 45.011719 55.476562 45.023438 Z M 55.476562 45.023438 " fill-opacity="1" fill-rule="nonzero"/></g></g></g><g clip-path="url(#d386a4cffc)"><g clip-path="url(#e4cfc23613)"><g clip-path="url(#58cf85a3fa)"><path fill="#8dc671" d="M 39.683594 53.691406 C 39.707031 53.535156 39.792969 53.546875 39.9375 53.722656 C 40.171875 54.011719 40.414062 54.316406 40.65625 54.628906 C 40.695312 54.679688 40.757812 54.714844 40.824219 54.71875 C 40.886719 54.726562 40.953125 54.703125 41 54.664062 C 43.117188 52.878906 45.910156 50.546875 49.378906 47.664062 C 49.851562 47.269531 50.65625 46.625 51.792969 45.734375 C 53.195312 44.632812 53.910156 44.070312 53.9375 44.046875 C 54.164062 43.824219 54.179688 43.613281 53.980469 43.410156 C 53.824219 43.25 53.664062 43.070312 53.496094 42.871094 C 49.394531 37.976562 47.171875 35.316406 46.824219 34.890625 C 45.777344 33.601562 44.988281 32.765625 44.449219 32.378906 C 43.453125 31.664062 42.417969 31.15625 41.347656 30.863281 C 38.609375 30.109375 35.691406 30.753906 33.5 32.578125 C 32.179688 33.671875 31.273438 34.988281 30.78125 36.515625 C 30.117188 38.589844 30.191406 40.582031 31 42.492188 C 31.34375 43.304688 31.921875 44.171875 32.730469 45.085938 C 32.765625 45.125 32.789062 45.171875 32.800781 45.222656 C 32.824219 45.332031 32.8125 45.414062 32.761719 45.476562 C 31.152344 43.679688 30.113281 41.605469 30.148438 39.15625 C 30.238281 32.402344 37.425781 28.238281 43.367188 31.472656 C 44.445312 32.058594 45.453125 32.917969 46.390625 34.046875 C 50.304688 38.753906 52.972656 41.960938 54.398438 43.667969 C 54.417969 43.691406 54.417969 43.726562 54.394531 43.746094 L 40.929688 54.988281 C 40.875 55.03125 40.792969 55.023438 40.75 54.972656 Z M 39.683594 53.691406 " fill-opacity="1" fill-rule="nonzero"/><path fill="#8dc671" d="M 39.683594 53.691406 L 32.761719 45.476562 C 32.8125 45.414062 32.824219 45.332031 32.800781 45.222656 C 32.789062 45.171875 32.765625 45.125 32.730469 45.085938 C 31.921875 44.171875 31.34375 43.304688 31 42.492188 C 30.191406 40.582031 30.117188 38.589844 30.78125 36.515625 C 31.273438 34.988281 32.179688 33.671875 33.5 32.578125 C 35.691406 30.753906 38.609375 30.109375 41.347656 30.863281 C 42.417969 31.15625 43.453125 31.664062 44.449219 32.378906 C 44.988281 32.765625 45.777344 33.601562 46.824219 34.890625 C 47.171875 35.316406 49.394531 37.976562 53.496094 42.871094 C 53.664062 43.070312 53.824219 43.25 53.980469 43.410156 C 54.179688 43.613281 54.164062 43.824219 53.9375 44.046875 C 53.910156 44.070312 53.195312 44.632812 51.792969 45.734375 C 50.65625 46.625 49.851562 47.269531 49.378906 47.664062 C 45.910156 50.546875 43.117188 52.878906 41 54.664062 C 40.953125 54.703125 40.886719 54.726562 40.824219 54.71875 C 40.757812 54.714844 40.695312 54.679688 40.65625 54.628906 C 40.414062 54.316406 40.171875 54.011719 39.9375 53.722656 C 39.792969 53.546875 39.707031 53.535156 39.683594 53.691406 Z M 39.683594 53.691406 " fill-opacity="1" fill-rule="nonzero"/></g></g></g><g clip-path="url(#d4d1745c94)"><g clip-path="url(#f0900c7168)"><g clip-path="url(#78258caa61)"><path fill="#ffffff" d="M 55.476562 45.023438 C 55.496094 45.011719 55.519531 45.003906 55.542969 45.003906 C 55.566406 45.007812 55.585938 45.019531 55.601562 45.035156 L 63.792969 54.84375 C 66.953125 58.632812 66.476562 64.324219 62.730469 67.449219 L 62.703125 67.472656 C 58.957031 70.601562 53.273438 70.058594 50.109375 66.269531 L 41.921875 56.460938 C 41.90625 56.445312 41.898438 56.421875 41.898438 56.394531 C 41.902344 56.371094 41.914062 56.351562 41.933594 56.335938 Z M 55.476562 45.023438 " fill-opacity="1" fill-rule="nonzero"/></g></g></g></svg>